<?xml version="1.0" encoding="UTF-8"?>
<svg id="b" data-name="Layer 2" xmlns="http://www.w3.org/2000/svg" width="1766.049" height="289.721" viewBox="0 0 1766.049 289.721">
  <g id="c" data-name="eQfhGr20z1E1" shape-rendering="geometricPrecision" text-rendering="geometricPrecision">
    <g>
      <path d="M.5.5h169.921v23.591H.5s0-23.591,0-23.591Z" fill="#2e2e2e" fill-rule="evenodd"/>
      <path d="M.5.5h169.921v23.591H.5s0-23.591,0-23.591Z" fill="none" stroke="#eee" stroke-linejoin="round"/>
      <path d="M47.518,17.377V6.892h7.594v1.234h-6.203v3.203h5.797v1.234h-5.797v3.578h6.438v1.234h-7.828ZM57.091,17.377v-7.594h1.156v1.141c.302-.531.578-.88.828-1.047.25-.177.521-.266.812-.266.437,0,.88.135,1.328.406l-.438,1.203c-.313-.188-.63-.281-.953-.281-.281,0-.536.083-.766.25-.219.167-.375.401-.469.703-.146.458-.219.958-.219,1.5v3.984h-1.281ZM66.971,17.377v-1.109c-.594.854-1.401,1.281-2.422,1.281-.448,0-.865-.083-1.25-.25-.385-.177-.677-.396-.875-.656-.187-.26-.318-.578-.391-.953-.052-.25-.078-.651-.078-1.203v-4.703h1.281v4.203c0,.677.026,1.13.078,1.359.083.344.255.615.516.812.271.188.599.281.984.281s.745-.099,1.078-.297c.344-.198.583-.469.719-.812.146-.344.219-.839.219-1.484v-4.062h1.281v7.594h-1.141ZM74.601,17.377V6.892h1.391v10.484h-1.391ZM78.251,17.377V6.892h1.281v10.484h-1.281ZM81.507,17.377V6.892h1.281v10.484h-1.281ZM89.779,17.377v-1.109c-.594.854-1.401,1.281-2.422,1.281-.448,0-.865-.083-1.25-.25-.385-.177-.677-.396-.875-.656-.188-.26-.318-.578-.391-.953-.052-.25-.078-.651-.078-1.203v-4.703h1.281v4.203c0,.677.026,1.13.078,1.359.083.344.255.615.516.812.271.188.599.281.984.281s.745-.099,1.078-.297c.344-.198.583-.469.719-.812.146-.344.219-.839.219-1.484v-4.062h1.281v7.594h-1.141ZM95.055,17.377l-2.891-7.594h1.359l1.625,4.547c.177.49.344,1,.5,1.531.104-.406.26-.891.469-1.453l1.688-4.625h1.328l-2.875,7.594h-1.203ZM105.227,16.439c-.479.406-.938.693-1.375.859-.438.167-.911.25-1.422.25-.833,0-1.474-.203-1.922-.609-.448-.406-.672-.927-.672-1.562,0-.375.083-.714.25-1.016.167-.312.385-.562.656-.75.281-.188.594-.328.938-.422.25-.062.63-.125,1.141-.188,1.042-.125,1.807-.276,2.297-.453.01-.177.016-.286.016-.328,0-.531-.125-.901-.375-1.109-.323-.292-.807-.438-1.453-.438-.615,0-1.068.109-1.359.328-.281.208-.49.578-.625,1.109l-1.266-.172c.115-.531.302-.964.562-1.297.26-.333.641-.589,1.141-.766.5-.177,1.073-.266,1.719-.266.656,0,1.188.078,1.594.234.406.146.703.333.891.562.188.229.323.521.406.875.042.219.062.615.062,1.188v1.719c0,1.198.026,1.958.078,2.281.052.312.161.615.328.906h-1.344c-.135-.271-.224-.583-.266-.938ZM105.117,13.564c-.469.188-1.167.349-2.094.484-.531.073-.906.161-1.125.266-.219.094-.391.234-.516.422-.115.177-.172.375-.172.594,0,.344.13.63.391.859.26.229.641.344,1.141.344.49,0,.927-.104,1.312-.312.396-.219.682-.516.859-.891.135-.292.203-.724.203-1.297v-.469ZM111.237,16.221l.188,1.141c-.365.073-.693.109-.984.109-.458,0-.818-.073-1.078-.219-.26-.146-.443-.339-.547-.578-.104-.24-.156-.745-.156-1.516v-4.375h-.953v-1h.953v-1.891l1.281-.766v2.656h1.297v1h-1.297v4.438c0,.365.021.604.062.719.052.104.125.188.219.25.104.052.255.078.453.078.135,0,.323-.016.562-.047ZM117.45,16.439c-.479.406-.938.693-1.375.859-.438.167-.911.25-1.422.25-.833,0-1.474-.203-1.922-.609-.448-.406-.672-.927-.672-1.562,0-.375.083-.714.25-1.016.167-.312.385-.562.656-.75.281-.188.594-.328.938-.422.25-.062.63-.125,1.141-.188,1.042-.125,1.807-.276,2.297-.453.01-.177.016-.286.016-.328,0-.531-.125-.901-.375-1.109-.323-.292-.807-.438-1.453-.438-.615,0-1.068.109-1.359.328-.281.208-.49.578-.625,1.109l-1.266-.172c.115-.531.302-.964.562-1.297.26-.333.641-.589,1.141-.766.5-.177,1.073-.266,1.719-.266.656,0,1.188.078,1.594.234.406.146.703.333.891.562.188.229.323.521.406.875.042.219.062.615.062,1.188v1.719c0,1.198.026,1.958.078,2.281.052.312.161.615.328.906h-1.344c-.135-.271-.224-.583-.266-.938ZM117.34,13.564c-.469.188-1.167.349-2.094.484-.531.073-.906.161-1.125.266-.219.094-.391.234-.516.422-.115.177-.172.375-.172.594,0,.344.13.63.391.859.26.229.641.344,1.141.344.49,0,.927-.104,1.312-.312.396-.219.682-.516.859-.891.135-.292.203-.724.203-1.297v-.469ZM120.632,17.377v-7.594h1.156v1.141c.302-.531.578-.88.828-1.047.25-.177.521-.266.812-.266.438,0,.88.135,1.328.406l-.438,1.203c-.312-.188-.63-.281-.953-.281-.281,0-.536.083-.766.25-.219.167-.375.401-.469.703-.146.458-.219.958-.219,1.5v3.984h-1.281Z" fill="#eee"/>
    </g>
    <g>
      <path d="M382.82.5h84.945v23.591h-84.945V.5Z" fill="#2e2e28" fill-rule="evenodd"/>
      <path d="M382.82.5h84.945v23.591h-84.945V.5Z" fill="none" stroke="#e0de71" stroke-linejoin="round"/>
      <path d="M408.17,17.377l4.016-10.484h1.5l4.297,10.484h-1.578l-1.234-3.172h-4.375l-1.156,3.172h-1.469ZM411.185,13.064h3.562l-1.094-2.906c-.333-.875-.583-1.599-.75-2.172-.135.677-.323,1.344-.562,2l-1.156,3.078ZM418.93,8.361v-1.469h1.297v1.469h-1.297ZM418.93,17.377v-7.594h1.297v7.594h-1.297ZM422.186,17.377v-7.594h1.156v1.078c.562-.833,1.37-1.25,2.422-1.25.458,0,.88.083,1.266.25.385.156.672.37.859.641.188.271.323.589.406.953.042.24.062.656.062,1.25v4.672h-1.281v-4.625c0-.521-.052-.911-.156-1.172-.104-.26-.286-.469-.547-.625-.25-.156-.547-.234-.891-.234-.542,0-1.016.177-1.422.531-.396.344-.594,1-.594,1.969v4.156h-1.281ZM435.321,17.377v-1.109c-.594.854-1.401,1.281-2.422,1.281-.448,0-.865-.083-1.25-.25-.385-.177-.677-.396-.875-.656-.188-.26-.318-.578-.391-.953-.052-.25-.078-.651-.078-1.203v-4.703h1.281v4.203c0,.677.026,1.13.078,1.359.083.344.255.615.516.812.271.188.599.281.984.281s.745-.099,1.078-.297c.344-.198.583-.469.719-.812.146-.344.219-.839.219-1.484v-4.062h1.281v7.594h-1.141ZM438.472,17.377v-7.594h1.156v1.141c.302-.531.578-.88.828-1.047.25-.177.521-.266.812-.266.438,0,.88.135,1.328.406l-.438,1.203c-.312-.188-.63-.281-.953-.281-.281,0-.536.083-.766.25-.219.167-.375.401-.469.703-.146.458-.219.958-.219,1.5v3.984h-1.281Z" fill="#eee"/>
      <path d="M170.421,12.295c53.102,0,79.654.016,106.205.031s53.102.031,106.205.031" fill="none" fill-rule="evenodd"/>
      <path d="M170.421,12.295c53.102,0,79.654.016,106.205.031,13.276.008,26.551.016,43.146.022,8.297.003,17.424.005,27.796.007l29.263.002" fill="none" stroke="#eee" stroke-linejoin="round"/>
      <path d="M376.831,14.01l4.538-1.651-4.538-1.652v3.303Z" fill="#eee" fill-rule="evenodd" stroke="#eee" stroke-miterlimit="10"/>
    </g>
    <g>
      <path d="M425.292,24.091c0,60.387,48.323,90.581,96.646,120.774s96.646,60.385,96.646,120.769" fill="none" fill-rule="evenodd"/>
      <path d="M425.292,24.091c0,60.387,48.323,90.581,96.646,120.774,24.161,15.096,48.323,30.193,66.444,49.063,9.061,9.435,16.611,19.814,21.896,31.607,2.643,5.897,4.719,12.148,6.135,18.811.708,3.332,1.251,6.767,1.616,10.312.091.886.172,1.78.241,2.68.035.45.066.902.095,1.356.014.227.028.454.041.682l.014.26" fill="none" stroke="#e0de71" stroke-linejoin="round"/>
      <path d="M616.77,259.681l1.774,4.492,1.528-4.581-3.302.09Z" fill="#e0de71" fill-rule="evenodd" stroke="#e0de71" stroke-miterlimit="10"/>
      <path d="M576.124,265.63h84.945v23.591h-84.945v-23.591Z" fill="#2e2e28" fill-rule="evenodd"/>
      <path d="M576.124,265.63h84.945v23.591h-84.945v-23.591Z" fill="none" stroke="#e0de71" stroke-linejoin="round"/>
      <path d="M601.366,282.507v-10.484h2.078l2.484,7.422c.229.688.396,1.203.5,1.547.125-.375.312-.932.562-1.672l2.516-7.297h1.859v10.484h-1.328v-8.781l-3.047,8.781h-1.266l-3.031-8.938v8.938h-1.328ZM618.403,281.569c-.479.406-.938.693-1.375.859-.438.167-.911.25-1.422.25-.833,0-1.474-.203-1.922-.609s-.672-.927-.672-1.562c0-.375.083-.714.25-1.016.167-.312.385-.562.656-.75.281-.188.594-.328.938-.422.25-.062.63-.125,1.141-.188,1.042-.125,1.807-.276,2.297-.453.01-.177.016-.286.016-.328,0-.531-.125-.901-.375-1.109-.323-.292-.807-.438-1.453-.438-.615,0-1.068.109-1.359.328-.281.208-.49.578-.625,1.109l-1.266-.172c.115-.531.302-.964.562-1.297.26-.333.641-.589,1.141-.766.5-.177,1.073-.266,1.719-.266.656,0,1.188.078,1.594.234.406.146.703.333.891.562.188.229.323.521.406.875.042.219.062.615.062,1.188v1.719c0,1.198.026,1.958.078,2.281.052.312.161.615.328.906h-1.344c-.135-.271-.224-.583-.266-.938ZM618.294,278.694c-.469.188-1.167.349-2.094.484-.531.073-.906.161-1.125.266-.219.094-.391.234-.516.422-.115.177-.172.375-.172.594,0,.344.13.63.391.859.26.229.641.344,1.141.344.49,0,.927-.104,1.312-.312.396-.219.682-.516.859-.891.135-.292.203-.724.203-1.297v-.469ZM621.601,273.491v-1.469h1.297v1.469h-1.297ZM621.601,282.507v-7.594h1.297v7.594h-1.297ZM629.81,281.569c-.479.406-.938.693-1.375.859-.438.167-.911.25-1.422.25-.833,0-1.474-.203-1.922-.609-.448-.406-.672-.927-.672-1.562,0-.375.083-.714.25-1.016.167-.312.385-.562.656-.75.281-.188.594-.328.938-.422.25-.062.63-.125,1.141-.188,1.042-.125,1.807-.276,2.297-.453.01-.177.016-.286.016-.328,0-.531-.125-.901-.375-1.109-.323-.292-.807-.438-1.453-.438-.615,0-1.068.109-1.359.328-.281.208-.49.578-.625,1.109l-1.266-.172c.115-.531.302-.964.562-1.297.26-.333.641-.589,1.141-.766.5-.177,1.073-.266,1.719-.266.656,0,1.188.078,1.594.234.406.146.703.333.891.562.188.229.323.521.406.875.042.219.062.615.062,1.188v1.719c0,1.198.026,1.958.078,2.281.052.312.161.615.328.906h-1.344c-.135-.271-.224-.583-.266-.938ZM629.701,278.694c-.469.188-1.167.349-2.094.484-.531.073-.906.161-1.125.266-.219.094-.391.234-.516.422-.115.177-.172.375-.172.594,0,.344.13.63.391.859.26.229.641.344,1.141.344.49,0,.927-.104,1.312-.312.396-.219.682-.516.859-.891.135-.292.203-.724.203-1.297v-.469ZM632.993,282.507v-7.594h1.156v1.141c.302-.531.578-.88.828-1.047.25-.177.521-.266.812-.266.438,0,.88.135,1.328.406l-.438,1.203c-.312-.188-.63-.281-.953-.281-.281,0-.536.083-.766.25-.219.167-.375.401-.469.703-.146.458-.219.958-.219,1.5v3.984h-1.281Z" fill="#eee"/>
    </g>
    <g>
      <path d="M425.292,24.091v40.551" fill="none" stroke="#595959" stroke-linejoin="round"/>
      <path d="M423.641,64.642l1.652,4.538,1.652-4.538h-3.303Z" fill="#595959" fill-rule="evenodd" stroke="#595959" stroke-miterlimit="10"/>
      <path d="M382.82,70.638h84.945v23.591h-84.945v-23.591Z" fill="#2e2e28" fill-rule="evenodd"/>
      <path d="M382.82,70.638h84.945v23.591h-84.945v-23.591Z" fill="none" stroke="#e0de71" stroke-linejoin="round"/>
      <path d="M412.854,87.515l-4.062-10.484h1.5l2.734,7.609c.219.615.401,1.188.547,1.719.167-.573.354-1.146.562-1.719l2.844-7.609h1.406l-4.109,10.484h-1.422ZM423.338,86.578c-.479.406-.938.693-1.375.859-.438.167-.911.25-1.422.25-.833,0-1.474-.203-1.922-.609-.448-.406-.672-.927-.672-1.562,0-.375.083-.714.25-1.016.167-.312.385-.562.656-.75.281-.187.594-.328.938-.422.25-.062.63-.125,1.141-.188,1.042-.125,1.807-.276,2.297-.453.01-.177.016-.286.016-.328,0-.531-.125-.901-.375-1.109-.323-.292-.807-.437-1.453-.438-.615,0-1.068.109-1.359.328-.281.208-.49.578-.625,1.109l-1.266-.172c.115-.531.302-.964.562-1.297.26-.333.641-.589,1.141-.766.5-.177,1.073-.266,1.719-.266.656,0,1.187.078,1.594.234.406.146.703.333.891.562.187.229.323.521.406.875.042.219.062.615.062,1.188v1.719c0,1.198.026,1.958.078,2.281.052.313.161.615.328.906h-1.344c-.135-.271-.224-.583-.266-.938ZM423.229,83.703c-.469.188-1.167.349-2.094.484-.531.073-.906.161-1.125.266-.219.094-.391.234-.516.422-.115.177-.172.375-.172.594,0,.344.13.63.391.859.26.229.641.344,1.141.344.49,0,.927-.104,1.312-.312.396-.219.682-.516.859-.891.135-.292.203-.724.203-1.297v-.469ZM426.505,87.515v-10.484h1.281v10.484h-1.281ZM434.746,86.578c-.479.406-.938.693-1.375.859-.438.167-.911.25-1.422.25-.833,0-1.474-.203-1.922-.609-.448-.406-.672-.927-.672-1.562,0-.375.083-.714.25-1.016.167-.312.385-.562.656-.75.281-.187.594-.328.938-.422.25-.062.63-.125,1.141-.188,1.042-.125,1.807-.276,2.297-.453.01-.177.016-.286.016-.328,0-.531-.125-.901-.375-1.109-.323-.292-.807-.437-1.453-.438-.615,0-1.068.109-1.359.328-.281.208-.49.578-.625,1.109l-1.266-.172c.115-.531.302-.964.562-1.297.26-.333.641-.589,1.141-.766.5-.177,1.073-.266,1.719-.266.656,0,1.188.078,1.594.234.406.146.703.333.891.562.188.229.323.521.406.875.042.219.062.615.062,1.188v1.719c0,1.198.026,1.958.078,2.281.052.313.161.615.328.906h-1.344c-.135-.271-.224-.583-.266-.938ZM434.636,83.703c-.469.188-1.167.349-2.094.484-.531.073-.906.161-1.125.266-.219.094-.391.234-.516.422-.115.177-.172.375-.172.594,0,.344.13.63.391.859.26.229.641.344,1.141.344.49,0,.927-.104,1.312-.312.396-.219.682-.516.859-.891.135-.292.203-.724.203-1.297v-.469ZM437.928,87.515v-7.594h1.156v1.141c.302-.531.578-.88.828-1.047.25-.177.521-.266.812-.266.438,0,.88.135,1.328.406l-.438,1.203c-.312-.187-.63-.281-.953-.281-.281,0-.536.083-.766.25-.219.167-.375.401-.469.703-.146.458-.219.958-.219,1.5v3.984h-1.281Z" fill="#eee"/>
      <path d="M425.292,24.091c0,11.641.016,17.463.031,23.282s.031,11.635.031,23.269" fill-rule="evenodd"/>
      <path d="M425.292,24.091c0,11.641.016,17.463.031,23.282.008,2.909.016,5.818.022,9.454.003,1.818.005,3.817.007,6.09l.031,1.725" fill="none" stroke="#e0de71" stroke-linejoin="round"/>
      <path d="M423.702,64.642l1.653,4.538,1.65-4.539h-3.303Z" fill="#e0de71" fill-rule="evenodd" stroke="#e0de71" stroke-miterlimit="10"/>
    </g>
    <g>
      <path d="M212.9,203.875h84.945v23.591h-84.945v-23.591Z" fill="#2e2e28" fill-rule="evenodd"/>
      <path d="M212.9,203.875h84.945v23.591h-84.945v-23.591Z" fill="none" stroke="#e0de71" stroke-linejoin="round"/>
      <path d="M232.843,220.752v-10.484h2.078l2.484,7.422c.229.688.396,1.203.5,1.547.125-.375.312-.932.562-1.672l2.516-7.297h1.859v10.484h-1.328v-8.781l-3.047,8.781h-1.266l-3.031-8.938v8.938h-1.328ZM249.88,219.814c-.479.406-.938.693-1.375.859s-.911.25-1.422.25c-.833,0-1.474-.203-1.922-.609s-.672-.927-.672-1.562c0-.375.083-.714.25-1.016.167-.312.385-.562.656-.75.281-.188.594-.328.938-.422.25-.062.63-.125,1.141-.188,1.042-.125,1.807-.276,2.297-.453.01-.177.016-.286.016-.328,0-.531-.125-.901-.375-1.109-.323-.292-.807-.438-1.453-.438-.615,0-1.068.109-1.359.328-.281.208-.49.578-.625,1.109l-1.266-.172c.115-.531.302-.964.562-1.297s.641-.589,1.141-.766,1.073-.266,1.719-.266c.656,0,1.188.078,1.594.234.406.146.703.333.891.562s.323.521.406.875c.042.219.062.615.062,1.188v1.719c0,1.198.026,1.958.078,2.281.052.312.161.615.328.906h-1.344c-.135-.271-.224-.583-.266-.938ZM249.771,216.939c-.469.188-1.167.349-2.094.484-.531.073-.906.161-1.125.266-.219.094-.391.234-.516.422-.115.177-.172.375-.172.594,0,.344.13.63.391.859s.641.344,1.141.344c.49,0,.927-.104,1.312-.312.396-.219.682-.516.859-.891.135-.292.203-.724.203-1.297v-.469ZM253.078,220.752v-7.594h1.156v1.078c.562-.833,1.37-1.25,2.422-1.25.458,0,.88.083,1.266.25.385.156.672.37.859.641s.323.589.406.953c.042.24.062.656.062,1.25v4.672h-1.281v-4.625c0-.521-.052-.911-.156-1.172-.104-.26-.286-.469-.547-.625-.25-.156-.547-.234-.891-.234-.542,0-1.016.177-1.422.531-.396.344-.594,1-.594,1.969v4.156h-1.281ZM262.635,220.752l-2.328-7.594h1.328l1.203,4.375.453,1.641c.021-.083.151-.609.391-1.578l1.219-4.438h1.328l1.125,4.406.391,1.453.438-1.469,1.297-4.391h1.25l-2.375,7.594h-1.344l-1.203-4.547-.297-1.297-1.531,5.844h-1.344ZM277.016,218.299l1.328.172c-.208.781-.599,1.385-1.172,1.812-.562.427-1.286.641-2.172.641-1.115,0-2-.339-2.656-1.016-.646-.688-.969-1.651-.969-2.891,0-1.281.328-2.271.984-2.969.667-.708,1.526-1.062,2.578-1.062,1.01,0,1.839.344,2.484,1.031s.969,1.661.969,2.922c0,.073-.005.188-.016.344h-5.656c.042.833.276,1.474.703,1.922.427.438.958.656,1.594.656.469,0,.87-.12,1.203-.359.333-.25.599-.651.797-1.203ZM272.782,216.221h4.25c-.062-.635-.224-1.115-.484-1.438-.417-.5-.953-.75-1.609-.75-.583,0-1.078.198-1.484.594s-.63.927-.672,1.594ZM272.876,211.658v-1.469h1.344v1.469h-1.344ZM275.548,211.658v-1.469h1.344v1.469h-1.344Z" fill="#eee"/>
      <path d="M425.292,94.229c0,27.408-42.48,41.112-84.961,54.817s-84.961,27.411-84.961,54.821" fill="none" fill-rule="evenodd"/>
      <path d="M425.292,94.229c0,27.408-42.48,41.112-84.961,54.817-21.24,6.852-42.48,13.705-58.41,22.271-7.965,4.283-14.603,8.994-19.249,14.348-2.323,2.677-4.148,5.514-5.393,8.539-.311.756-.586,1.524-.823,2.304-.119.39-.228.783-.327,1.179l-.053.221" fill="none" stroke="#e0de71" stroke-linejoin="round"/>
      <path d="M254.436,197.714l1.107,4.701,2.173-4.313-3.281-.388Z" fill="#e0de71" fill-rule="evenodd" stroke="#e0de71" stroke-miterlimit="10"/>
    </g>
    <g>
      <path d="M297.86,203.875h84.945v23.591h-84.945v-23.591Z" fill="#2e2e28" fill-rule="evenodd"/>
      <path d="M297.86,203.875h84.945v23.591h-84.945v-23.591Z" fill="none" stroke="#e0de71" stroke-linejoin="round"/>
      <path d="M325.65,220.752l4.016-10.484h1.5l4.297,10.484h-1.578l-1.234-3.172h-4.375l-1.156,3.172h-1.469ZM328.665,216.439h3.562l-1.094-2.906c-.333-.875-.583-1.599-.75-2.172-.135.677-.323,1.344-.562,2l-1.156,3.078ZM341.394,220.752v-1.109c-.594.854-1.401,1.281-2.422,1.281-.448,0-.865-.083-1.25-.25-.385-.177-.677-.396-.875-.656-.188-.26-.318-.578-.391-.953-.052-.25-.078-.651-.078-1.203v-4.703h1.281v4.203c0,.677.026,1.13.078,1.359.083.344.255.615.516.812.271.188.599.281.984.281s.745-.099,1.078-.297c.344-.198.583-.469.719-.812.146-.344.219-.839.219-1.484v-4.062h1.281v7.594h-1.141ZM344.53,220.752v-10.484h1.281v10.484h-1.281ZM353.02,218.299l1.328.172c-.208.781-.599,1.385-1.172,1.812-.562.427-1.286.641-2.172.641-1.115,0-2-.339-2.656-1.016-.646-.688-.969-1.651-.969-2.891,0-1.281.328-2.271.984-2.969.667-.708,1.526-1.062,2.578-1.062,1.01,0,1.839.344,2.484,1.031.646.688.969,1.661.969,2.922,0,.073-.005.188-.016.344h-5.656c.042.833.276,1.474.703,1.922.427.438.958.656,1.594.656.469,0,.87-.12,1.203-.359.333-.25.599-.651.797-1.203ZM348.786,216.221h4.25c-.062-.635-.224-1.115-.484-1.438-.417-.5-.953-.75-1.609-.75-.583,0-1.078.198-1.484.594s-.63.927-.672,1.594ZM348.88,211.658v-1.469h1.344v1.469h-1.344ZM351.551,211.658v-1.469h1.344v1.469h-1.344Z" fill="#eee"/>
      <path d="M425.292,94.229c0,27.408-21.236,41.112-42.472,54.817s-42.472,27.411-42.472,54.821" fill="none" fill-rule="evenodd"/>
      <path d="M425.292,94.229c0,27.408-21.236,41.112-42.472,54.817-10.618,6.852-21.236,13.705-29.2,22.271-3.982,4.283-7.3,8.994-9.623,14.348-1.161,2.677-2.074,5.514-2.696,8.539-.156.756-.293,1.524-.412,2.304-.059.39-.114.783-.164,1.179l-.023.191" fill="none" stroke="#e0de71" stroke-linejoin="round"/>
      <path d="M339.055,197.779l1.38,4.628,1.918-4.432-3.298-.196Z" fill="#e0de71" fill-rule="evenodd" stroke="#e0de71" stroke-miterlimit="10"/>
    </g>
    <g>
      <path d="M382.82,203.875h84.945v23.591h-84.945v-23.591Z" fill="#2e2e28" fill-rule="evenodd"/>
      <path d="M382.82,203.875h84.945v23.591h-84.945v-23.591Z" fill="none" stroke="#e0de71" stroke-linejoin="round"/>
      <path d="M401.001,220.752v-4.438l-4.047-6.047h1.688l2.062,3.156c.385.594.74,1.188,1.062,1.781.323-.552.708-1.172,1.156-1.859l2.031-3.078h1.609l-4.188,6.047v4.438h-1.375ZM411.516,219.814c-.479.406-.938.693-1.375.859s-.911.25-1.422.25c-.833,0-1.474-.203-1.922-.609s-.672-.927-.672-1.562c0-.375.083-.714.25-1.016.167-.312.385-.562.656-.75.281-.188.594-.328.938-.422.25-.062.63-.125,1.141-.188,1.042-.125,1.807-.276,2.297-.453.01-.177.016-.286.016-.328,0-.531-.125-.901-.375-1.109-.323-.292-.807-.438-1.453-.438-.615,0-1.068.109-1.359.328-.281.208-.49.578-.625,1.109l-1.266-.172c.115-.531.302-.964.562-1.297s.641-.589,1.141-.766,1.073-.266,1.719-.266c.656,0,1.188.078,1.594.234.406.146.703.333.891.562s.323.521.406.875c.042.219.062.615.062,1.188v1.719c0,1.198.026,1.958.078,2.281.052.312.161.615.328.906h-1.344c-.135-.271-.224-.583-.266-.938ZM411.407,216.939c-.469.188-1.167.349-2.094.484-.531.073-.906.161-1.125.266-.219.094-.391.234-.516.422-.115.177-.172.375-.172.594,0,.344.13.63.391.859s.641.344,1.141.344c.49,0,.927-.104,1.312-.312.396-.219.682-.516.859-.891.135-.292.203-.724.203-1.297v-.469ZM416.823,220.752l-2.891-7.594h1.359l1.625,4.547c.177.49.344,1,.5,1.531.104-.406.26-.891.469-1.453l1.688-4.625h1.328l-2.875,7.594h-1.203ZM426.995,219.814c-.479.406-.938.693-1.375.859s-.911.25-1.422.25c-.833,0-1.474-.203-1.922-.609s-.672-.927-.672-1.562c0-.375.083-.714.25-1.016.167-.312.385-.562.656-.75.281-.188.594-.328.938-.422.25-.062.63-.125,1.141-.188,1.042-.125,1.807-.276,2.297-.453.01-.177.016-.286.016-.328,0-.531-.125-.901-.375-1.109-.323-.292-.807-.438-1.453-.438-.615,0-1.068.109-1.359.328-.281.208-.49.578-.625,1.109l-1.266-.172c.115-.531.302-.964.562-1.297s.641-.589,1.141-.766,1.073-.266,1.719-.266c.656,0,1.188.078,1.594.234.406.146.703.333.891.562s.323.521.406.875c.042.219.062.615.062,1.188v1.719c0,1.198.026,1.958.078,2.281.052.312.161.615.328.906h-1.344c-.135-.271-.224-.583-.266-.938ZM426.886,216.939c-.469.188-1.167.349-2.094.484-.531.073-.906.161-1.125.266-.219.094-.391.234-.516.422-.115.177-.172.375-.172.594,0,.344.13.63.391.859s.641.344,1.141.344c.49,0,.927-.104,1.312-.312.396-.219.682-.516.859-.891.135-.292.203-.724.203-1.297v-.469ZM430.193,220.752v-7.594h1.156v1.078c.562-.833,1.37-1.25,2.422-1.25.458,0,.88.083,1.266.25.385.156.672.37.859.641s.323.589.406.953c.042.24.062.656.062,1.25v4.672h-1.281v-4.625c0-.521-.052-.911-.156-1.172-.104-.26-.286-.469-.547-.625-.25-.156-.547-.234-.891-.234-.542,0-1.016.177-1.422.531-.396.344-.594,1-.594,1.969v4.156h-1.281ZM438.344,220.752v-7.594h1.156v1.078c.562-.833,1.37-1.25,2.422-1.25.458,0,.88.083,1.266.25.385.156.672.37.859.641s.323.589.406.953c.042.24.062.656.062,1.25v4.672h-1.281v-4.625c0-.521-.052-.911-.156-1.172-.104-.26-.286-.469-.547-.625-.25-.156-.547-.234-.891-.234-.542,0-1.016.177-1.422.531-.396.344-.594,1-.594,1.969v4.156h-1.281ZM451.449,219.814c-.479.406-.937.693-1.375.859-.437.167-.911.25-1.422.25-.833,0-1.474-.203-1.922-.609-.448-.406-.672-.927-.672-1.562,0-.375.083-.714.25-1.016.167-.312.385-.562.656-.75.281-.188.594-.328.938-.422.25-.062.63-.125,1.141-.188,1.042-.125,1.807-.276,2.297-.453.01-.177.016-.286.016-.328,0-.531-.125-.901-.375-1.109-.323-.292-.807-.438-1.453-.438-.615,0-1.068.109-1.359.328-.281.208-.49.578-.625,1.109l-1.266-.172c.115-.531.302-.964.562-1.297.26-.333.641-.589,1.141-.766.5-.177,1.073-.266,1.719-.266.656,0,1.188.078,1.594.234.406.146.703.333.891.562.188.229.323.521.406.875.042.219.063.615.062,1.188v1.719c0,1.198.026,1.958.078,2.281.052.312.161.615.328.906h-1.344c-.135-.271-.224-.583-.266-.938ZM451.339,216.939c-.469.188-1.167.349-2.094.484-.531.073-.906.161-1.125.266-.219.094-.391.234-.516.422-.115.177-.172.375-.172.594,0,.344.13.63.391.859.26.229.641.344,1.141.344.49,0,.927-.104,1.312-.312.396-.219.682-.516.859-.891.135-.292.203-.724.203-1.297v-.469Z" fill="#eee"/>
      <path d="M425.292,94.229c0,27.408.016,41.112.031,54.817s.031,27.411.031,54.821" fill="none" fill-rule="evenodd"/>
      <path d="M425.292,94.229c0,27.408.016,41.112.031,54.817.008,6.852.016,13.705.022,22.271.003,4.283.005,8.994.007,14.348l.002,12.202" fill="none" stroke="#e0de71" stroke-linejoin="round"/>
      <path d="M423.703,197.867l1.652,4.538,1.651-4.538h-3.303Z" fill="#e0de71" fill-rule="evenodd" stroke="#e0de71" stroke-miterlimit="10"/>
    </g>
    <g>
      <path d="M425.292,24.091c0,44.946,112.047,67.419,224.094,89.892s224.094,44.944,224.094,89.888" fill="none" fill-rule="evenodd"/>
      <path d="M425.292,24.091c0,44.946,112.047,67.419,224.095,89.892,56.024,11.236,112.047,22.472,154.065,36.517,21.009,7.022,38.516,14.747,50.771,23.525,6.128,4.389,10.942,9.041,14.225,14.001,1.641,2.48,2.9,5.036,3.748,7.675.212.66.398,1.325.559,1.995l.049.213" fill="none" stroke="#e0de71" stroke-linejoin="round"/>
      <path d="M871.162,198.095l2.154,4.322,1.128-4.696-3.282.373Z" fill="#e0de71" fill-rule="evenodd" stroke="#e0de71" stroke-miterlimit="10"/>
      <path d="M831.004,203.875h84.945v23.591h-84.945v-23.591Z" fill="#241c1c" fill-rule="evenodd"/>
      <path d="M831.004,203.875h84.945v23.591h-84.945v-23.591Z" fill="none" stroke="#6f0000" stroke-linejoin="round"/>
      <path d="M847.687,220.752v-10.484h2.078l2.484,7.422c.229.688.396,1.203.5,1.547.125-.375.312-.932.562-1.672l2.516-7.297h1.859v10.484h-1.328v-8.781l-3.047,8.781h-1.266l-3.031-8.938v8.938h-1.328ZM859.287,216.955c0-1.406.391-2.448,1.172-3.125.656-.562,1.453-.844,2.391-.844,1.052,0,1.906.344,2.562,1.031.667.677,1,1.62,1,2.828,0,.979-.146,1.75-.438,2.312-.292.552-.719.984-1.281,1.297s-1.177.469-1.844.469c-1.062,0-1.922-.339-2.578-1.016-.656-.688-.984-1.672-.984-2.953ZM860.615,216.955c0,.969.208,1.698.625,2.188.427.479.964.719,1.609.719s1.177-.24,1.594-.719c.427-.49.641-1.234.641-2.234,0-.938-.214-1.646-.641-2.125-.427-.49-.958-.734-1.594-.734-.646,0-1.182.24-1.609.719-.417.479-.625,1.208-.625,2.188ZM867.907,220.752v-7.594h1.156v1.141c.302-.531.578-.88.828-1.047.25-.177.521-.266.812-.266.438,0,.88.135,1.328.406l-.438,1.203c-.312-.188-.63-.281-.953-.281-.281,0-.536.083-.766.25-.219.167-.375.401-.469.703-.146.458-.219.958-.219,1.5v3.984h-1.281ZM872.568,221.377l1.25.188c.052.385.198.667.438.844.312.24.75.359,1.312.359.594,0,1.052-.12,1.375-.359.323-.24.542-.573.656-1,.073-.26.104-.812.094-1.656-.562.667-1.266,1-2.109,1-1.042,0-1.849-.375-2.422-1.125-.573-.76-.859-1.667-.859-2.719,0-.729.13-1.396.391-2,.271-.615.651-1.089,1.141-1.422.5-.333,1.089-.5,1.766-.5.896,0,1.635.359,2.219,1.078v-.906h1.188v6.562c0,1.188-.12,2.026-.359,2.516-.24.49-.625.875-1.156,1.156-.521.292-1.161.438-1.922.438-.906,0-1.641-.203-2.203-.609-.552-.406-.818-1.021-.797-1.844ZM873.631,216.814c0,1,.198,1.729.594,2.188.396.458.891.688,1.484.688s1.089-.229,1.484-.688c.406-.458.609-1.172.609-2.141,0-.927-.208-1.625-.625-2.094-.406-.479-.901-.719-1.484-.719-.573,0-1.062.234-1.469.703-.396.458-.594,1.146-.594,2.062ZM880.47,216.955c0-1.406.391-2.448,1.172-3.125.656-.562,1.453-.844,2.391-.844,1.052,0,1.906.344,2.562,1.031.667.677,1,1.62,1,2.828,0,.979-.146,1.75-.438,2.312-.292.552-.719.984-1.281,1.297s-1.177.469-1.844.469c-1.062,0-1.922-.339-2.578-1.016-.656-.688-.984-1.672-.984-2.953ZM881.798,216.955c0,.969.208,1.698.625,2.188.427.479.964.719,1.609.719s1.177-.24,1.594-.719c.427-.49.641-1.234.641-2.234,0-.938-.214-1.646-.641-2.125-.427-.49-.958-.734-1.594-.734-.646,0-1.182.24-1.609.719-.417.479-.625,1.208-.625,2.188ZM891.918,219.596l.188,1.141c-.365.073-.693.109-.984.109-.458,0-.818-.073-1.078-.219-.26-.146-.443-.339-.547-.578-.104-.24-.156-.745-.156-1.516v-4.375h-.953v-1h.953v-1.891l1.281-.766v2.656h1.297v1h-1.297v4.438c0,.365.021.604.062.719.052.104.125.188.219.25.104.052.255.078.453.078.135,0,.323-.016.562-.047ZM893.177,220.752v-10.484h1.281v3.75c.604-.688,1.365-1.031,2.281-1.031.562,0,1.052.109,1.469.328s.714.526.891.922c.177.385.266.953.266,1.703v4.812h-1.281v-4.812c0-.646-.141-1.115-.422-1.406s-.677-.438-1.188-.438c-.385,0-.745.099-1.078.297s-.573.469-.719.812c-.146.333-.219.797-.219,1.391v4.156h-1.281Z" fill="#eee"/>
    </g>
    <g>
      <path d="M1680.604,203.875h84.945v23.591h-84.945v-23.591Z" fill="#241c1c" fill-rule="evenodd"/>
      <path d="M1680.604,203.875h84.945v23.591h-84.945v-23.591Z" fill="none" stroke="#6f0000" stroke-linejoin="round"/>
      <path d="M1700.13,210.268h1.391v6.047c0,1.062-.12,1.906-.359,2.531-.24.615-.672,1.115-1.297,1.5s-1.443.578-2.453.578c-.979,0-1.781-.167-2.406-.5-.625-.344-1.073-.833-1.344-1.469-.26-.646-.391-1.526-.391-2.641v-6.047h1.391v6.047c0,.917.083,1.589.25,2.016.167.427.453.76.859,1,.417.229.927.344,1.531.344,1.021,0,1.745-.229,2.172-.688.438-.469.656-1.359.656-2.672v-6.047ZM1703.667,220.752v-7.594h1.156v1.078c.562-.833,1.37-1.25,2.422-1.25.458,0,.88.083,1.266.25.385.156.672.37.859.641s.323.589.406.953c.042.24.062.656.062,1.25v4.672h-1.281v-4.625c0-.521-.052-.911-.156-1.172s-.286-.469-.547-.625c-.25-.156-.547-.234-.891-.234-.542,0-1.016.177-1.422.531-.396.344-.594,1-.594,1.969v4.156h-1.281ZM1711.584,221.377l1.25.188c.052.385.198.667.438.844.312.24.75.359,1.312.359.594,0,1.052-.12,1.375-.359.323-.24.542-.573.656-1,.073-.26.104-.812.094-1.656-.563.667-1.266,1-2.109,1-1.042,0-1.849-.375-2.422-1.125-.573-.76-.859-1.667-.859-2.719,0-.729.13-1.396.391-2,.271-.615.651-1.089,1.141-1.422.5-.333,1.089-.5,1.766-.5.896,0,1.635.359,2.219,1.078v-.906h1.188v6.562c0,1.188-.12,2.026-.359,2.516-.24.49-.625.875-1.156,1.156-.521.292-1.161.438-1.922.438-.906,0-1.641-.203-2.203-.609-.552-.406-.818-1.021-.797-1.844ZM1712.647,216.814c0,1,.198,1.729.594,2.188.396.458.891.688,1.484.688s1.089-.229,1.484-.688c.406-.458.609-1.172.609-2.141,0-.927-.208-1.625-.625-2.094-.406-.479-.901-.719-1.484-.719-.573,0-1.063.234-1.469.703-.396.458-.594,1.146-.594,2.062ZM1719.485,216.955c0-1.406.391-2.448,1.172-3.125.656-.562,1.453-.844,2.391-.844,1.052,0,1.906.344,2.562,1.031.667.677,1,1.62,1,2.828,0,.979-.146,1.75-.438,2.312-.292.552-.719.984-1.281,1.297s-1.177.469-1.844.469c-1.062,0-1.922-.339-2.578-1.016-.656-.688-.984-1.672-.984-2.953ZM1720.813,216.955c0,.969.208,1.698.625,2.188.427.479.964.719,1.609.719s1.177-.24,1.594-.719c.427-.49.641-1.234.641-2.234,0-.938-.214-1.646-.641-2.125-.427-.49-.958-.734-1.594-.734-.646,0-1.182.24-1.609.719-.417.479-.625,1.208-.625,2.188ZM1728.089,220.752v-10.484h1.281v10.484h-1.281ZM1731.377,211.736v-1.469h1.297v1.469h-1.297ZM1731.377,220.752v-7.594h1.297v7.594h-1.297ZM1739.586,219.814c-.479.406-.938.693-1.375.859-.438.167-.911.25-1.422.25-.833,0-1.474-.203-1.922-.609-.448-.406-.672-.927-.672-1.562,0-.375.083-.714.25-1.016.167-.312.385-.562.656-.75.281-.188.594-.328.938-.422.25-.062.63-.125,1.141-.188,1.042-.125,1.807-.276,2.297-.453.01-.177.016-.286.016-.328,0-.531-.125-.901-.375-1.109-.323-.292-.807-.438-1.453-.438-.615,0-1.068.109-1.359.328-.281.208-.49.578-.625,1.109l-1.266-.172c.115-.531.302-.964.562-1.297.26-.333.641-.589,1.141-.766.5-.177,1.073-.266,1.719-.266.656,0,1.187.078,1.594.234.406.146.703.333.891.562.187.229.323.521.406.875.042.219.062.615.062,1.188v1.719c0,1.198.026,1.958.078,2.281.052.312.161.615.328.906h-1.344c-.135-.271-.224-.583-.266-.938ZM1739.477,216.939c-.469.188-1.167.349-2.094.484-.531.073-.906.161-1.125.266-.219.094-.391.234-.516.422-.115.177-.172.375-.172.594,0,.344.13.63.391.859.26.229.641.344,1.141.344.49,0,.927-.104,1.312-.312.396-.219.682-.516.859-.891.135-.292.203-.724.203-1.297v-.469ZM1742.784,220.752v-7.594h1.156v1.078c.562-.833,1.37-1.25,2.422-1.25.458,0,.88.083,1.266.25.385.156.672.37.859.641s.323.589.406.953c.042.24.062.656.062,1.25v4.672h-1.281v-4.625c0-.521-.052-.911-.156-1.172s-.286-.469-.547-.625c-.25-.156-.547-.234-.891-.234-.542,0-1.016.177-1.422.531-.396.344-.594,1-.594,1.969v4.156h-1.281ZM1753.748,219.596l.188,1.141c-.365.073-.693.109-.984.109-.458,0-.818-.073-1.078-.219-.26-.146-.443-.339-.547-.578-.104-.24-.156-.745-.156-1.516v-4.375h-.953v-1h.953v-1.891l1.281-.766v2.656h1.297v1h-1.297v4.438c0,.365.021.604.062.719.052.104.125.188.219.25.104.052.255.078.453.078.135,0,.323-.016.562-.047Z" fill="#eee"/>
      <path d="M425.292,24.091c0,44.947,324.449,67.421,648.898,89.893,324.449,22.472,648.898,44.943,648.898,89.886" fill="none" fill-rule="evenodd"/>
      <path d="M425.292,24.091c0,44.947,324.449,67.421,648.898,89.893,162.224,11.236,324.449,22.472,446.117,36.517,60.834,7.022,111.529,14.747,147.016,23.525,17.743,4.389,31.684,9.041,41.19,14.001,4.753,2.48,8.396,5.036,10.852,7.675.614.66,1.154,1.325,1.618,1.995.058.084.115.168.171.252l.13.201" fill="none" stroke="#e0de71" stroke-linejoin="round"/>
      <path d="M1719.708,198.645l2.94,3.831.21-4.825-3.151.994Z" fill="#e0de71" fill-rule="evenodd" stroke="#e0de71" stroke-miterlimit="10"/>
      <path d="M1723.076,94.229c0,27.408.016,41.112.031,54.817s.031,27.411.031,54.821" fill="none" fill-rule="evenodd"/>
    </g>
  </g>
</svg>
