<?xml version="1.0" encoding="UTF-8"?>
<svg id="b" data-name="Layer 2" xmlns="http://www.w3.org/2000/svg" width="170.921" height="24.591" viewBox="0 0 170.921 24.591">
  <g id="c" data-name="eQfhGr20z1E1" shape-rendering="geometricPrecision" text-rendering="geometricPrecision">
    <g>
      <path d="M.5.5h169.921v23.591H.5s0-23.591,0-23.591Z" fill="#2e2e2e" fill-rule="evenodd"/>
      <path d="M.5.5h169.921v23.591H.5s0-23.591,0-23.591Z" fill="none" stroke="#eee" stroke-linejoin="round"/>
      <path d="M47.518,17.377V6.892h7.594v1.234h-6.203v3.203h5.797v1.234h-5.797v3.578h6.438v1.234h-7.828ZM57.091,17.377v-7.594h1.156v1.141c.302-.531.578-.88.828-1.047.25-.177.521-.266.812-.266.437,0,.88.135,1.328.406l-.438,1.203c-.313-.188-.63-.281-.953-.281-.281,0-.536.083-.766.25-.219.167-.375.401-.469.703-.146.458-.219.958-.219,1.5v3.984h-1.281ZM66.971,17.377v-1.109c-.594.854-1.401,1.281-2.422,1.281-.448,0-.865-.083-1.25-.25-.385-.177-.677-.396-.875-.656-.187-.26-.318-.578-.391-.953-.052-.25-.078-.651-.078-1.203v-4.703h1.281v4.203c0,.677.026,1.13.078,1.359.083.344.255.615.516.812.271.188.599.281.984.281s.745-.099,1.078-.297c.344-.198.583-.469.719-.812.146-.344.219-.839.219-1.484v-4.062h1.281v7.594h-1.141ZM74.601,17.377V6.892h1.391v10.484h-1.391ZM78.251,17.377V6.892h1.281v10.484h-1.281ZM81.507,17.377V6.892h1.281v10.484h-1.281ZM89.779,17.377v-1.109c-.594.854-1.401,1.281-2.422,1.281-.448,0-.865-.083-1.25-.25-.385-.177-.677-.396-.875-.656-.188-.26-.318-.578-.391-.953-.052-.25-.078-.651-.078-1.203v-4.703h1.281v4.203c0,.677.026,1.13.078,1.359.083.344.255.615.516.812.271.188.599.281.984.281s.745-.099,1.078-.297c.344-.198.583-.469.719-.812.146-.344.219-.839.219-1.484v-4.062h1.281v7.594h-1.141ZM95.055,17.377l-2.891-7.594h1.359l1.625,4.547c.177.49.344,1,.5,1.531.104-.406.26-.891.469-1.453l1.688-4.625h1.328l-2.875,7.594h-1.203ZM105.227,16.439c-.479.406-.938.693-1.375.859-.438.167-.911.25-1.422.25-.833,0-1.474-.203-1.922-.609-.448-.406-.672-.927-.672-1.562,0-.375.083-.714.25-1.016.167-.312.385-.562.656-.75.281-.188.594-.328.938-.422.25-.062.63-.125,1.141-.188,1.042-.125,1.807-.276,2.297-.453.01-.177.016-.286.016-.328,0-.531-.125-.901-.375-1.109-.323-.292-.807-.438-1.453-.438-.615,0-1.068.109-1.359.328-.281.208-.49.578-.625,1.109l-1.266-.172c.115-.531.302-.964.562-1.297.26-.333.641-.589,1.141-.766.5-.177,1.073-.266,1.719-.266.656,0,1.188.078,1.594.234.406.146.703.333.891.562.188.229.323.521.406.875.042.219.062.615.062,1.188v1.719c0,1.198.026,1.958.078,2.281.052.312.161.615.328.906h-1.344c-.135-.271-.224-.583-.266-.938ZM105.117,13.564c-.469.188-1.167.349-2.094.484-.531.073-.906.161-1.125.266-.219.094-.391.234-.516.422-.115.177-.172.375-.172.594,0,.344.13.63.391.859.26.229.641.344,1.141.344.49,0,.927-.104,1.312-.312.396-.219.682-.516.859-.891.135-.292.203-.724.203-1.297v-.469ZM111.237,16.221l.188,1.141c-.365.073-.693.109-.984.109-.458,0-.818-.073-1.078-.219-.26-.146-.443-.339-.547-.578-.104-.24-.156-.745-.156-1.516v-4.375h-.953v-1h.953v-1.891l1.281-.766v2.656h1.297v1h-1.297v4.438c0,.365.021.604.062.719.052.104.125.188.219.25.104.052.255.078.453.078.135,0,.323-.016.562-.047ZM117.45,16.439c-.479.406-.938.693-1.375.859-.438.167-.911.25-1.422.25-.833,0-1.474-.203-1.922-.609-.448-.406-.672-.927-.672-1.562,0-.375.083-.714.25-1.016.167-.312.385-.562.656-.75.281-.188.594-.328.938-.422.25-.062.63-.125,1.141-.188,1.042-.125,1.807-.276,2.297-.453.01-.177.016-.286.016-.328,0-.531-.125-.901-.375-1.109-.323-.292-.807-.438-1.453-.438-.615,0-1.068.109-1.359.328-.281.208-.49.578-.625,1.109l-1.266-.172c.115-.531.302-.964.562-1.297.26-.333.641-.589,1.141-.766.5-.177,1.073-.266,1.719-.266.656,0,1.188.078,1.594.234.406.146.703.333.891.562.188.229.323.521.406.875.042.219.062.615.062,1.188v1.719c0,1.198.026,1.958.078,2.281.052.312.161.615.328.906h-1.344c-.135-.271-.224-.583-.266-.938ZM117.34,13.564c-.469.188-1.167.349-2.094.484-.531.073-.906.161-1.125.266-.219.094-.391.234-.516.422-.115.177-.172.375-.172.594,0,.344.13.63.391.859.26.229.641.344,1.141.344.49,0,.927-.104,1.312-.312.396-.219.682-.516.859-.891.135-.292.203-.724.203-1.297v-.469ZM120.632,17.377v-7.594h1.156v1.141c.302-.531.578-.88.828-1.047.25-.177.521-.266.812-.266.438,0,.88.135,1.328.406l-.438,1.203c-.312-.188-.63-.281-.953-.281-.281,0-.536.083-.766.25-.219.167-.375.401-.469.703-.146.458-.219.958-.219,1.5v3.984h-1.281Z" fill="#eee"/>
    </g>
  </g>
</svg>
