<?xml version="1.0" encoding="UTF-8"?>
<svg id="b" data-name="Layer 2" xmlns="http://www.w3.org/2000/svg" width="661.569" height="289.721" viewBox="0 0 661.569 289.721">
  <g id="c" data-name="eQfhGr20z1E1" shape-rendering="geometricPrecision" text-rendering="geometricPrecision">
    <g>
      <path d="M.5.5h169.921v23.591H.5s0-23.591,0-23.591Z" fill="#2e2e2e" fill-rule="evenodd"/>
      <path d="M.5.5h169.921v23.591H.5s0-23.591,0-23.591Z" fill="none" stroke="#eee" stroke-linejoin="round"/>
      <path d="M47.518,17.377V6.892h7.594v1.234h-6.203v3.203h5.797v1.234h-5.797v3.578h6.438v1.234h-7.828ZM57.091,17.377v-7.594h1.156v1.141c.302-.531.578-.88.828-1.047.25-.177.521-.266.812-.266.437,0,.88.135,1.328.406l-.438,1.203c-.313-.188-.63-.281-.953-.281-.281,0-.536.083-.766.25-.219.167-.375.401-.469.703-.146.458-.219.958-.219,1.5v3.984h-1.281ZM66.971,17.377v-1.109c-.594.854-1.401,1.281-2.422,1.281-.448,0-.865-.083-1.25-.25-.385-.177-.677-.396-.875-.656-.187-.26-.318-.578-.391-.953-.052-.25-.078-.651-.078-1.203v-4.703h1.281v4.203c0,.677.026,1.13.078,1.359.083.344.255.615.516.812.271.188.599.281.984.281s.745-.099,1.078-.297c.344-.198.583-.469.719-.812.146-.344.219-.839.219-1.484v-4.062h1.281v7.594h-1.141ZM74.601,17.377V6.892h1.391v10.484h-1.391ZM78.251,17.377V6.892h1.281v10.484h-1.281ZM81.507,17.377V6.892h1.281v10.484h-1.281ZM89.779,17.377v-1.109c-.594.854-1.401,1.281-2.422,1.281-.448,0-.865-.083-1.25-.25-.385-.177-.677-.396-.875-.656-.188-.26-.318-.578-.391-.953-.052-.25-.078-.651-.078-1.203v-4.703h1.281v4.203c0,.677.026,1.13.078,1.359.083.344.255.615.516.812.271.188.599.281.984.281s.745-.099,1.078-.297c.344-.198.583-.469.719-.812.146-.344.219-.839.219-1.484v-4.062h1.281v7.594h-1.141ZM95.055,17.377l-2.891-7.594h1.359l1.625,4.547c.177.49.344,1,.5,1.531.104-.406.26-.891.469-1.453l1.688-4.625h1.328l-2.875,7.594h-1.203ZM105.227,16.439c-.479.406-.938.693-1.375.859-.438.167-.911.25-1.422.25-.833,0-1.474-.203-1.922-.609-.448-.406-.672-.927-.672-1.562,0-.375.083-.714.25-1.016.167-.312.385-.562.656-.75.281-.188.594-.328.938-.422.25-.062.63-.125,1.141-.188,1.042-.125,1.807-.276,2.297-.453.01-.177.016-.286.016-.328,0-.531-.125-.901-.375-1.109-.323-.292-.807-.438-1.453-.438-.615,0-1.068.109-1.359.328-.281.208-.49.578-.625,1.109l-1.266-.172c.115-.531.302-.964.562-1.297.26-.333.641-.589,1.141-.766.5-.177,1.073-.266,1.719-.266.656,0,1.188.078,1.594.234.406.146.703.333.891.562.188.229.323.521.406.875.042.219.062.615.062,1.188v1.719c0,1.198.026,1.958.078,2.281.052.312.161.615.328.906h-1.344c-.135-.271-.224-.583-.266-.938ZM105.117,13.564c-.469.188-1.167.349-2.094.484-.531.073-.906.161-1.125.266-.219.094-.391.234-.516.422-.115.177-.172.375-.172.594,0,.344.13.63.391.859.26.229.641.344,1.141.344.49,0,.927-.104,1.312-.312.396-.219.682-.516.859-.891.135-.292.203-.724.203-1.297v-.469ZM111.237,16.221l.188,1.141c-.365.073-.693.109-.984.109-.458,0-.818-.073-1.078-.219-.26-.146-.443-.339-.547-.578-.104-.24-.156-.745-.156-1.516v-4.375h-.953v-1h.953v-1.891l1.281-.766v2.656h1.297v1h-1.297v4.438c0,.365.021.604.062.719.052.104.125.188.219.25.104.052.255.078.453.078.135,0,.323-.016.562-.047ZM117.45,16.439c-.479.406-.938.693-1.375.859-.438.167-.911.25-1.422.25-.833,0-1.474-.203-1.922-.609-.448-.406-.672-.927-.672-1.562,0-.375.083-.714.25-1.016.167-.312.385-.562.656-.75.281-.188.594-.328.938-.422.25-.062.63-.125,1.141-.188,1.042-.125,1.807-.276,2.297-.453.01-.177.016-.286.016-.328,0-.531-.125-.901-.375-1.109-.323-.292-.807-.438-1.453-.438-.615,0-1.068.109-1.359.328-.281.208-.49.578-.625,1.109l-1.266-.172c.115-.531.302-.964.562-1.297.26-.333.641-.589,1.141-.766.5-.177,1.073-.266,1.719-.266.656,0,1.188.078,1.594.234.406.146.703.333.891.562.188.229.323.521.406.875.042.219.062.615.062,1.188v1.719c0,1.198.026,1.958.078,2.281.052.312.161.615.328.906h-1.344c-.135-.271-.224-.583-.266-.938ZM117.34,13.564c-.469.188-1.167.349-2.094.484-.531.073-.906.161-1.125.266-.219.094-.391.234-.516.422-.115.177-.172.375-.172.594,0,.344.13.63.391.859.26.229.641.344,1.141.344.49,0,.927-.104,1.312-.312.396-.219.682-.516.859-.891.135-.292.203-.724.203-1.297v-.469ZM120.632,17.377v-7.594h1.156v1.141c.302-.531.578-.88.828-1.047.25-.177.521-.266.812-.266.438,0,.88.135,1.328.406l-.438,1.203c-.312-.188-.63-.281-.953-.281-.281,0-.536.083-.766.25-.219.167-.375.401-.469.703-.146.458-.219.958-.219,1.5v3.984h-1.281Z" fill="#eee"/>
    </g>
    <g>
      <path d="M382.82.5h84.945v23.591h-84.945V.5Z" fill="#2e2e28" fill-rule="evenodd"/>
      <path d="M382.82.5h84.945v23.591h-84.945V.5Z" fill="none" stroke="#e0de71" stroke-linejoin="round"/>
      <path d="M408.17,17.377l4.016-10.484h1.5l4.297,10.484h-1.578l-1.234-3.172h-4.375l-1.156,3.172h-1.469ZM411.185,13.064h3.562l-1.094-2.906c-.333-.875-.583-1.599-.75-2.172-.135.677-.323,1.344-.562,2l-1.156,3.078ZM418.93,8.361v-1.469h1.297v1.469h-1.297ZM418.93,17.377v-7.594h1.297v7.594h-1.297ZM422.186,17.377v-7.594h1.156v1.078c.562-.833,1.37-1.25,2.422-1.25.458,0,.88.083,1.266.25.385.156.672.37.859.641.188.271.323.589.406.953.042.24.062.656.062,1.25v4.672h-1.281v-4.625c0-.521-.052-.911-.156-1.172-.104-.26-.286-.469-.547-.625-.25-.156-.547-.234-.891-.234-.542,0-1.016.177-1.422.531-.396.344-.594,1-.594,1.969v4.156h-1.281ZM435.321,17.377v-1.109c-.594.854-1.401,1.281-2.422,1.281-.448,0-.865-.083-1.25-.25-.385-.177-.677-.396-.875-.656-.188-.26-.318-.578-.391-.953-.052-.25-.078-.651-.078-1.203v-4.703h1.281v4.203c0,.677.026,1.13.078,1.359.083.344.255.615.516.812.271.188.599.281.984.281s.745-.099,1.078-.297c.344-.198.583-.469.719-.812.146-.344.219-.839.219-1.484v-4.062h1.281v7.594h-1.141ZM438.472,17.377v-7.594h1.156v1.141c.302-.531.578-.88.828-1.047.25-.177.521-.266.812-.266.438,0,.88.135,1.328.406l-.438,1.203c-.312-.188-.63-.281-.953-.281-.281,0-.536.083-.766.25-.219.167-.375.401-.469.703-.146.458-.219.958-.219,1.5v3.984h-1.281Z" fill="#eee"/>
      <path d="M170.421,12.295c53.102,0,79.654.016,106.205.031s53.102.031,106.205.031" fill-rule="evenodd"/>
      <path d="M170.421,12.295c53.102,0,79.654.016,106.205.031,13.276.008,26.551.016,43.146.022,8.297.003,17.424.005,27.796.007l29.263.002" fill="none" stroke="#eee" stroke-linejoin="round"/>
      <path d="M376.831,14.01l4.538-1.651-4.538-1.652v3.303Z" fill="#eee" fill-rule="evenodd" stroke="#eee" stroke-miterlimit="10"/>
    </g>
    <g>
      <path d="M425.292,24.091c0,60.387,48.323,90.581,96.646,120.774s96.646,60.385,96.646,120.769" fill-rule="evenodd"/>
      <path d="M425.292,24.091c0,60.387,48.323,90.581,96.646,120.774,24.161,15.096,48.323,30.193,66.444,49.063,9.061,9.435,16.611,19.814,21.896,31.607,2.643,5.897,4.719,12.148,6.135,18.811.708,3.332,1.251,6.767,1.616,10.312.091.886.172,1.78.241,2.68.035.45.066.902.095,1.356.014.227.028.454.041.682l.014.26" fill="none" stroke="#e0de71" stroke-linejoin="round"/>
      <path d="M616.77,259.681l1.774,4.492,1.528-4.581-3.302.09Z" fill="#e0de71" fill-rule="evenodd" stroke="#e0de71" stroke-miterlimit="10"/>
      <path d="M576.124,265.63h84.945v23.591h-84.945v-23.591Z" fill="#2e2e28" fill-rule="evenodd"/>
      <path d="M576.124,265.63h84.945v23.591h-84.945v-23.591Z" fill="none" stroke="#e0de71" stroke-linejoin="round"/>
      <path d="M601.366,282.507v-10.484h2.078l2.484,7.422c.229.688.396,1.203.5,1.547.125-.375.312-.932.562-1.672l2.516-7.297h1.859v10.484h-1.328v-8.781l-3.047,8.781h-1.266l-3.031-8.938v8.938h-1.328ZM618.403,281.569c-.479.406-.938.693-1.375.859-.438.167-.911.25-1.422.25-.833,0-1.474-.203-1.922-.609s-.672-.927-.672-1.562c0-.375.083-.714.25-1.016.167-.312.385-.562.656-.75.281-.188.594-.328.938-.422.25-.062.63-.125,1.141-.188,1.042-.125,1.807-.276,2.297-.453.01-.177.016-.286.016-.328,0-.531-.125-.901-.375-1.109-.323-.292-.807-.438-1.453-.438-.615,0-1.068.109-1.359.328-.281.208-.49.578-.625,1.109l-1.266-.172c.115-.531.302-.964.562-1.297.26-.333.641-.589,1.141-.766.5-.177,1.073-.266,1.719-.266.656,0,1.188.078,1.594.234.406.146.703.333.891.562.188.229.323.521.406.875.042.219.062.615.062,1.188v1.719c0,1.198.026,1.958.078,2.281.052.312.161.615.328.906h-1.344c-.135-.271-.224-.583-.266-.938ZM618.294,278.694c-.469.188-1.167.349-2.094.484-.531.073-.906.161-1.125.266-.219.094-.391.234-.516.422-.115.177-.172.375-.172.594,0,.344.13.63.391.859.26.229.641.344,1.141.344.49,0,.927-.104,1.312-.312.396-.219.682-.516.859-.891.135-.292.203-.724.203-1.297v-.469ZM621.601,273.491v-1.469h1.297v1.469h-1.297ZM621.601,282.507v-7.594h1.297v7.594h-1.297ZM629.81,281.569c-.479.406-.938.693-1.375.859-.438.167-.911.25-1.422.25-.833,0-1.474-.203-1.922-.609-.448-.406-.672-.927-.672-1.562,0-.375.083-.714.25-1.016.167-.312.385-.562.656-.75.281-.188.594-.328.938-.422.25-.062.63-.125,1.141-.188,1.042-.125,1.807-.276,2.297-.453.01-.177.016-.286.016-.328,0-.531-.125-.901-.375-1.109-.323-.292-.807-.438-1.453-.438-.615,0-1.068.109-1.359.328-.281.208-.49.578-.625,1.109l-1.266-.172c.115-.531.302-.964.562-1.297.26-.333.641-.589,1.141-.766.5-.177,1.073-.266,1.719-.266.656,0,1.188.078,1.594.234.406.146.703.333.891.562.188.229.323.521.406.875.042.219.062.615.062,1.188v1.719c0,1.198.026,1.958.078,2.281.052.312.161.615.328.906h-1.344c-.135-.271-.224-.583-.266-.938ZM629.701,278.694c-.469.188-1.167.349-2.094.484-.531.073-.906.161-1.125.266-.219.094-.391.234-.516.422-.115.177-.172.375-.172.594,0,.344.13.63.391.859.26.229.641.344,1.141.344.49,0,.927-.104,1.312-.312.396-.219.682-.516.859-.891.135-.292.203-.724.203-1.297v-.469ZM632.993,282.507v-7.594h1.156v1.141c.302-.531.578-.88.828-1.047.25-.177.521-.266.812-.266.438,0,.88.135,1.328.406l-.438,1.203c-.312-.188-.63-.281-.953-.281-.281,0-.536.083-.766.25-.219.167-.375.401-.469.703-.146.458-.219.958-.219,1.5v3.984h-1.281Z" fill="#eee"/>
    </g>
    <g>
      <path d="M425.292,24.091v40.551" fill="none" stroke="#595959" stroke-linejoin="round"/>
      <path d="M423.641,64.642l1.652,4.538,1.652-4.538h-3.303Z" fill="#595959" fill-rule="evenodd" stroke="#595959" stroke-miterlimit="10"/>
      <path d="M382.82,70.638h84.945v23.591h-84.945v-23.591Z" fill="#2e2e28" fill-rule="evenodd"/>
      <path d="M382.82,70.638h84.945v23.591h-84.945v-23.591Z" fill="none" stroke="#e0de71" stroke-linejoin="round"/>
      <path d="M412.854,87.515l-4.062-10.484h1.5l2.734,7.609c.219.615.401,1.188.547,1.719.167-.573.354-1.146.562-1.719l2.844-7.609h1.406l-4.109,10.484h-1.422ZM423.338,86.578c-.479.406-.938.693-1.375.859-.438.167-.911.25-1.422.25-.833,0-1.474-.203-1.922-.609-.448-.406-.672-.927-.672-1.562,0-.375.083-.714.25-1.016.167-.312.385-.562.656-.75.281-.187.594-.328.938-.422.25-.062.63-.125,1.141-.188,1.042-.125,1.807-.276,2.297-.453.01-.177.016-.286.016-.328,0-.531-.125-.901-.375-1.109-.323-.292-.807-.437-1.453-.438-.615,0-1.068.109-1.359.328-.281.208-.49.578-.625,1.109l-1.266-.172c.115-.531.302-.964.562-1.297.26-.333.641-.589,1.141-.766.5-.177,1.073-.266,1.719-.266.656,0,1.187.078,1.594.234.406.146.703.333.891.562.187.229.323.521.406.875.042.219.062.615.062,1.188v1.719c0,1.198.026,1.958.078,2.281.052.313.161.615.328.906h-1.344c-.135-.271-.224-.583-.266-.938ZM423.229,83.703c-.469.188-1.167.349-2.094.484-.531.073-.906.161-1.125.266-.219.094-.391.234-.516.422-.115.177-.172.375-.172.594,0,.344.13.63.391.859.26.229.641.344,1.141.344.49,0,.927-.104,1.312-.312.396-.219.682-.516.859-.891.135-.292.203-.724.203-1.297v-.469ZM426.505,87.515v-10.484h1.281v10.484h-1.281ZM434.746,86.578c-.479.406-.938.693-1.375.859-.438.167-.911.25-1.422.25-.833,0-1.474-.203-1.922-.609-.448-.406-.672-.927-.672-1.562,0-.375.083-.714.25-1.016.167-.312.385-.562.656-.75.281-.187.594-.328.938-.422.25-.062.63-.125,1.141-.188,1.042-.125,1.807-.276,2.297-.453.01-.177.016-.286.016-.328,0-.531-.125-.901-.375-1.109-.323-.292-.807-.437-1.453-.438-.615,0-1.068.109-1.359.328-.281.208-.49.578-.625,1.109l-1.266-.172c.115-.531.302-.964.562-1.297.26-.333.641-.589,1.141-.766.5-.177,1.073-.266,1.719-.266.656,0,1.188.078,1.594.234.406.146.703.333.891.562.188.229.323.521.406.875.042.219.062.615.062,1.188v1.719c0,1.198.026,1.958.078,2.281.052.313.161.615.328.906h-1.344c-.135-.271-.224-.583-.266-.938ZM434.636,83.703c-.469.188-1.167.349-2.094.484-.531.073-.906.161-1.125.266-.219.094-.391.234-.516.422-.115.177-.172.375-.172.594,0,.344.13.63.391.859.26.229.641.344,1.141.344.49,0,.927-.104,1.312-.312.396-.219.682-.516.859-.891.135-.292.203-.724.203-1.297v-.469ZM437.928,87.515v-7.594h1.156v1.141c.302-.531.578-.88.828-1.047.25-.177.521-.266.812-.266.438,0,.88.135,1.328.406l-.438,1.203c-.312-.187-.63-.281-.953-.281-.281,0-.536.083-.766.25-.219.167-.375.401-.469.703-.146.458-.219.958-.219,1.5v3.984h-1.281Z" fill="#eee"/>
      <path d="M425.292,24.091c0,11.641.016,17.463.031,23.282s.031,11.635.031,23.269" fill-rule="evenodd"/>
      <path d="M425.292,24.091c0,11.641.016,17.463.031,23.282.008,2.909.016,5.818.022,9.454.003,1.818.005,3.817.007,6.09l.031,1.725" fill="none" stroke="#e0de71" stroke-linejoin="round"/>
      <path d="M423.702,64.642l1.653,4.538,1.65-4.539h-3.303Z" fill="#e0de71" fill-rule="evenodd" stroke="#e0de71" stroke-miterlimit="10"/>
    </g>
    <g>
      <path d="M212.9,203.875h84.945v23.591h-84.945v-23.591Z" fill="#2e2e28" fill-rule="evenodd"/>
      <path d="M212.9,203.875h84.945v23.591h-84.945v-23.591Z" fill="none" stroke="#e0de71" stroke-linejoin="round"/>
      <path d="M232.843,220.752v-10.484h2.078l2.484,7.422c.229.688.396,1.203.5,1.547.125-.375.312-.932.562-1.672l2.516-7.297h1.859v10.484h-1.328v-8.781l-3.047,8.781h-1.266l-3.031-8.938v8.938h-1.328ZM249.88,219.814c-.479.406-.938.693-1.375.859s-.911.25-1.422.25c-.833,0-1.474-.203-1.922-.609s-.672-.927-.672-1.562c0-.375.083-.714.25-1.016.167-.312.385-.562.656-.75.281-.188.594-.328.938-.422.25-.062.63-.125,1.141-.188,1.042-.125,1.807-.276,2.297-.453.01-.177.016-.286.016-.328,0-.531-.125-.901-.375-1.109-.323-.292-.807-.438-1.453-.438-.615,0-1.068.109-1.359.328-.281.208-.49.578-.625,1.109l-1.266-.172c.115-.531.302-.964.562-1.297s.641-.589,1.141-.766,1.073-.266,1.719-.266c.656,0,1.188.078,1.594.234.406.146.703.333.891.562s.323.521.406.875c.042.219.062.615.062,1.188v1.719c0,1.198.026,1.958.078,2.281.052.312.161.615.328.906h-1.344c-.135-.271-.224-.583-.266-.938ZM249.771,216.939c-.469.188-1.167.349-2.094.484-.531.073-.906.161-1.125.266-.219.094-.391.234-.516.422-.115.177-.172.375-.172.594,0,.344.13.63.391.859s.641.344,1.141.344c.49,0,.927-.104,1.312-.312.396-.219.682-.516.859-.891.135-.292.203-.724.203-1.297v-.469ZM253.078,220.752v-7.594h1.156v1.078c.562-.833,1.37-1.25,2.422-1.25.458,0,.88.083,1.266.25.385.156.672.37.859.641s.323.589.406.953c.042.24.062.656.062,1.25v4.672h-1.281v-4.625c0-.521-.052-.911-.156-1.172-.104-.26-.286-.469-.547-.625-.25-.156-.547-.234-.891-.234-.542,0-1.016.177-1.422.531-.396.344-.594,1-.594,1.969v4.156h-1.281ZM262.635,220.752l-2.328-7.594h1.328l1.203,4.375.453,1.641c.021-.083.151-.609.391-1.578l1.219-4.438h1.328l1.125,4.406.391,1.453.438-1.469,1.297-4.391h1.25l-2.375,7.594h-1.344l-1.203-4.547-.297-1.297-1.531,5.844h-1.344ZM277.016,218.299l1.328.172c-.208.781-.599,1.385-1.172,1.812-.562.427-1.286.641-2.172.641-1.115,0-2-.339-2.656-1.016-.646-.688-.969-1.651-.969-2.891,0-1.281.328-2.271.984-2.969.667-.708,1.526-1.062,2.578-1.062,1.01,0,1.839.344,2.484,1.031s.969,1.661.969,2.922c0,.073-.005.188-.016.344h-5.656c.042.833.276,1.474.703,1.922.427.438.958.656,1.594.656.469,0,.87-.12,1.203-.359.333-.25.599-.651.797-1.203ZM272.782,216.221h4.25c-.062-.635-.224-1.115-.484-1.438-.417-.5-.953-.75-1.609-.75-.583,0-1.078.198-1.484.594s-.63.927-.672,1.594ZM272.876,211.658v-1.469h1.344v1.469h-1.344ZM275.548,211.658v-1.469h1.344v1.469h-1.344Z" fill="#eee"/>
      <path d="M425.292,94.229c0,27.408-42.48,41.112-84.961,54.817s-84.961,27.411-84.961,54.821" fill-rule="evenodd"/>
      <path d="M425.292,94.229c0,27.408-42.48,41.112-84.961,54.817-21.24,6.852-42.48,13.705-58.41,22.271-7.965,4.283-14.603,8.994-19.249,14.348-2.323,2.677-4.148,5.514-5.393,8.539-.311.756-.586,1.524-.823,2.304-.119.39-.228.783-.327,1.179l-.053.221" fill="none" stroke="#e0de71" stroke-linejoin="round"/>
      <path d="M254.436,197.714l1.107,4.701,2.173-4.313-3.281-.388Z" fill="#e0de71" fill-rule="evenodd" stroke="#e0de71" stroke-miterlimit="10"/>
    </g>
  </g>
</svg>